#!OML:ASF I:\Actors\actors\Patient Classification 2\Patient 1\Session 1\actor1.ASF
:FULLY-SPECIFIED
:DEGREES
496
root -0.720142 18.7491 5.70833 4.33308 4.74824 -0.754922
lowerback 2.08094 3.59374 2.47544
upperback -0.545937 4.88304 1.4115
thorax -1.64083 2.4206 -0.0996129
lowerneck -13.9779 -5.84682 -5.80413
upperneck 34.2132 -8.05437 3.34119
head 14.4994 -3.71308 1.05838
rclavicle -1.00933e-013 -3.89618e-014
rhumerus -8.74123 27.4325 -62.5407
rradius 92.5558
rwrist -63.0153
rhand -5.29758 -58.461
rfingers 7.12502
rthumb 20.5075 272.602
lclavicle -1.00933e-013 -3.89618e-014
lhumerus -35.0355 -29.129 103.75
lradius 104.95
lwrist 69.4263
lhand -16.2855 -9.44607
lfingers 7.12502
lthumb 9.92471 20.3
rfemur 0 0 0
rtibia 0
rfoot 0 0
rtoes 0
lfemur -8.60755 -9.11287 -12.6719
ltibia 21.5791
lfoot -21.2244 13.0778
ltoes -55.0479
497
root -0.721149 18.7463 5.71554 4.30808 4.52019 -0.758866
lowerback 1.98284 3.55518 2.36364
upperback -0.679738 4.82674 1.28307
thorax -1.72235 2.39147 -0.165865
lowerneck -13.803 -5.68374 -5.79048
upperneck 34.4705 -7.86287 3.41068
head 14.5693 -3.62179 1.12286
rclavicle 7.60351e-015 -2.06736e-014
rhumerus -10.7387 28.9584 -63.1252
rradius 94.1704
rwrist -62.8256
rhand -5.43869 -58.3328
rfingers 7.12502
rthumb 20.3719 272.716
lclavicle 7.60351e-015 -2.06736e-014
lhumerus -35.1424 -29.0229 103.68
lradius 104.651
lwrist 68.9228
lhand -16.3958 -8.97883
lfingers 7.12502
lthumb 9.81831 20.7723
rfemur 0 0 0
rtibia 0
rfoot 0 0
rtoes 0
lfemur -8.45756 -9.09702 -12.6932
ltibia 21.5217
lfoot -21.3329 13.1989
ltoes -54.9683
498
root -0.720979 18.7435 5.72388 4.29481 4.26682 -0.742118
lowerback 1.84902 3.50352 2.20844
upperback -0.78281 4.75042 1.18537
thorax -1.75879 2.3538 -0.172649
lowerneck -13.6694 -5.4982 -5.68406
upperneck 34.6834 -7.61752 3.3605
head 14.6131 -3.51169 1.1305
rclavicle 8.63968e-014 -6.36111e-015
rhumerus -12.6207 30.2293 -64.0058
rradius 95.4827
rwrist -62.7013
rhand -6.31558 -57.6018
rfingers 7.12502
rthumb 19.529 273.359
lclavicle 8.63968e-014 -6.36111e-015
lhumerus -35.3108 -28.8796 103.664
lradius 104.43
lwrist 68.6412
lhand -16.6121 -8.82833
lfingers 7.12502
lthumb 9.60966 20.9325
rfemur 0 0 0
rtibia 0
rfoot 0 0
rtoes 0
lfemur -8.31409 -9.09946 -12.7519
ltibia 21.4843
lfoot -21.4857 13.3849
ltoes -54.9238
499
root -0.720828 18.7414 5.73178 4.31619 4.04793 -0.707641
lowerback 1.66868 3.40173 1.9562
upperback -0.705252 4.60033 1.1382
thorax -1.59642 2.28352 -0.0622108
lowerneck -14.2692 -5.34249 -5.65784
upperneck 35.0927 -7.37072 3.31947
head 14.9239 -3.39642 1.13588
rclavicle -1.14301e-015 7.95139e-015
rhumerus -13.8794 31.2233 -64.7871
rradius 96.5279
rwrist -62.6339
rhand -7.7888 -57.1077
rfingers 7.12502
rthumb 18.112 273.716
lclavicle -1.14301e-015 7.95139e-015
lhumerus -35.0308 -28.6881 103.45
lradius 104.209
lwrist 68.5396
lhand -16.8178 -8.74158
lfingers 7.12502
lthumb 9.41116 21.0283
rfemur 0 0 0
rtibia 0
rfoot 0 0
rtoes 0
lfemur -8.23086 -9.1029 -12.8222
ltibia 21.4602
lfoot -21.6266 13.581
ltoes -54.9126
500
root -0.720607 18.7394 5.73912 4.33108 3.8619 -0.720591
lowerback 1.49106 3.35321 1.90568
upperback -0.971212 4.53294 0.980272
thorax -1.76195 2.24702 -0.192128
lowerneck -13.554 -5.22247 -5.49215
upperneck 35.2349 -7.27496 3.29461
head 14.8094 -3.34954 1.13339
rclavicle -1.00386e-014 9.54166e-015
rhumerus -16.162 32.0534 -66.2945
rradius 97.5676
rwrist -62.3133
rhand -8.60214 -57.0581
rfingers 7.12502
rthumb 17.3294 273.695
lclavicle -1.00386e-014 9.54166e-015
lhumerus -35.602 -28.5702 103.582
lradius 104.021
lwrist 68.3295
lhand -16.7478 -8.65026
lfingers 7.12502
lthumb 9.47866 21.1166
rfemur 0 0 0
rtibia 0
rfoot 0 0
rtoes 0
lfemur -8.16747 -9.07546 -12.8288
ltibia 21.4434
lfoot -21.7103 13.7016
ltoes -54.9114
501
root -0.720139 18.7381 5.7459 4.36462 3.67748 -0.776949
lowerback 1.30086 3.30737 1.94042
upperback -1.10093 4.46721 0.814649
thorax -1.7737 2.21209 -0.370967
lowerneck -13.4122 -4.98688 -5.03427
upperneck 35.439 -7.00503 3.10723
head 14.8229 -3.2009 1.02762
rclavicle -4.74723e-014 -2.38542e-014
rhumerus -18.1404 32.6275 -67.8633
rradius 98.5024
rwrist -61.6883
rhand -8.76737 -57.1723
rfingers 7.12502
rthumb 17.1704 273.566
lclavicle -4.74723e-014 -2.38542e-014
lhumerus -35.8051 -28.5435 103.541
lradius 103.803
lwrist 68.0366
lhand -16.606 -8.63761
lfingers 7.12502
lthumb 9.61553 21.1229
rfemur 0 0 0
rtibia 0
rfoot 0 0
rtoes 0
lfemur -8.1373 -8.99473 -12.782
ltibia 21.4352
lfoot -21.749 13.7892
ltoes -54.9653
502
root -0.719591 18.7379 5.75134 4.41274 3.49704 -0.812045
lowerback 1.11099 3.24678 1.897
upperback -1.09902 4.37833 0.694368
thorax -1.66076 2.16869 -0.455216
lowerneck -13.6524 -4.86242 -4.92032
upperneck 35.6552 -6.8558 3.1104
head 14.9669 -3.11757 1.02891
rclavicle 6.26544e-014 4.77083e-015
rhumerus -19.6729 33.0571 -69.2837
rradius 99.3673
rwrist -61.2847
rhand -9.02069 -57.1476
rfingers 7.12502
rthumb 16.9265 273.57
lclavicle 6.26544e-014 4.77083e-015
lhumerus -35.7301 -28.5131 103.411
lradius 103.649
lwrist 67.5814
lhand -16.6637 -8.59789
lfingers 7.12502
lthumb 9.55982 21.1652
rfemur 0 0 0
rtibia 0
rfoot 0 0
rtoes 0
lfemur -8.12371 -8.94551 -12.7571
ltibia 21.4309
lfoot -21.8335 13.8807
ltoes -55.023
503
root -0.719394 18.7371 5.75663 4.40655 3.36489 -0.843795
lowerback 0.970093 3.14739 1.76621
upperback -1.03779 4.2378 0.636658
thorax -1.52674 2.10131 -0.427773
lowerneck -14.1128 -4.73193 -4.95938
upperneck 35.969 -6.68056 3.2031
head 15.2217 -3.02745 1.09436
rclavicle -8.69683e-015 4.77083e-015
rhumerus -21.0866 33.3651 -70.6356
rradius 100.198
rwrist -61.0317
rhand -9.56398 -57.1162
rfingers 7.12502
rthumb 16.4035 273.557
lclavicle -8.69683e-015 4.77083e-015
lhumerus -35.5063 -28.3598 103.283
lradius 103.51
lwrist 66.9672
lhand -16.813 -8.48237
lfingers 7.12502
lthumb 9.41573 21.2873
rfemur 0 0 0
rtibia 0
rfoot 0 0
rtoes 0
lfemur -8.05011 -8.94691 -12.7333
ltibia 21.4134
lfoot -21.9764 13.9213
ltoes -54.9408
504
root -0.720044 18.7351 5.76301 4.34675 3.27295 -0.866911
lowerback 0.847064 3.04532 1.62445
upperback -1.01544 4.09523 0.574798
thorax -1.44285 2.03219 -0.40151
lowerneck -14.346 -4.55928 -4.78582
upperneck 36.2415 -6.44122 3.10387
head 15.382 -2.91191 1.06007
rclavicle -2.54817e-014 -2.18663e-015
rhumerus -22.7412 33.4998 -72.2872
rradius 100.903
rwrist -59.9488
rhand -10.1444 -57.2781
rfingers 7.12502
rthumb 15.8446 273.35
lclavicle -2.54817e-014 -2.18663e-015
lhumerus -35.3619 -28.1832 103.223
lradius 103.294
lwrist 66.3592
lhand -16.7759 -8.27709
lfingers 7.12502
lthumb 9.45153 21.491
rfemur 0 0 0
rtibia 0
rfoot 0 0
rtoes 0
lfemur -7.91363 -8.90676 -12.7206
ltibia 21.3779
lfoot -22.0806 13.8979
ltoes -54.8056
505
root -0.719764 18.7336 5.76946 4.301 3.18399 -0.811074
lowerback 0.700573 2.94242 1.41046
upperback -1.03681 3.95115 0.500766
thorax -1.39429 1.96249 -0.348223
lowerneck -14.3254 -4.4296 -4.75875
upperneck 36.4363 -6.2568 3.08193
head 15.4597 -2.83397 1.07981
rclavicle 1.38777e-014 -8.15017e-015
rhumerus -24.3685 33.613 -74.1132
rradius 101.385
rwrist -58.3154
rhand -10.4776 -57.3251
rfingers 7.12502
rthumb 15.5237 273.278
lclavicle 1.38777e-014 -8.15017e-015
lhumerus -35.2823 -27.9764 103.234
lradius 103.001
lwrist 65.6827
lhand -16.6848 -8.05798
lfingers 7.12502
lthumb 9.53949 21.7061
rfemur 0 0 0
rtibia 0
rfoot 0 0
rtoes 0
lfemur -7.78775 -8.85121 -12.8033
ltibia 21.339
lfoot -22.1276 13.8956
ltoes -54.7791
506
root -0.71707 18.7327 5.77423 4.29417 3.08781 -0.718773
lowerback 0.558423 2.8578 1.19273
upperback -1.08737 3.83227 0.401005
thorax -1.37559 1.90491 -0.321061
lowerneck -14.3542 -4.26777 -4.72343
upperneck 36.6655 -6.0455 3.11479
head 15.5675 -2.73489 1.12563
rclavicle 5.74612e-015 6.95746e-015
rhumerus -25.9716 33.6477 -75.9223
rradius 101.844
rwrist -57.0185
rhand -10.615 -57.4164
rfingers 7.12502
rthumb 15.3914 273.176
lclavicle 5.74612e-015 6.95746e-015
lhumerus -35.2065 -27.8205 103.268
lradius 102.681
lwrist 64.8287
lhand -16.7922 -7.8289
lfingers 7.12502
lthumb 9.43587 21.9399
rfemur 0 0 0
rtibia 0
rfoot 0 0
rtoes 0
lfemur -7.71339 -8.86442 -12.9343
ltibia 21.3097
lfoot -22.1711 13.9889
ltoes -54.7955
